// react svg

<svg
    className='border'
    xmlns="http://www.w3.org/2000/svg"
    width="40mm"
    height="30mm"
    viewBox='22.01141357421875 94.859130859375 152.7406005859375 81.699951171875'
  >
    <g transform="translate(-319.18 -877.39)">
      <rect
        width={28.409}
        height={11.927}
        x={996.12}
        y={-511.22}
        fill="#a00"
        rx={5.451}
        ry={5.451}
        transform="rotate(90)"
      />
      <g fill="#a00">
        <g strokeWidth={1.597}>
          <path
            d="M237.05 327.15c1.616 1.508 3.363 2.261 5.032 2.261 4.275 0 6.908-5.893 6.908-14.048 0-4.043-.834-7.743-2.346-10.279-1.538-2.604-2.92-3.631-3.728-4.933-1.382-2.193-2.112-4.249-2.112-7.401 0-3.769 1.173-6.51 3.076-6.51.835 0 1.434.343 1.904.96l.365.959.443 7.126h1.877v-11.1c-1.643-1.508-3.285-2.33-4.901-2.33-3.729 0-6.153 5.893-6.153 13.5 0 3.357.626 6.715 1.825 9.387 1.147 2.536 2.372 3.7 3.415 5.071 1.851 2.467 2.79 4.934 2.79 8.635 0 3.768-1.252 6.51-3.364 6.51-.808 0-1.564-.343-2.294-.96l-.339-1.028-.417-8.223h-1.981zM266.71 328.65h7.69v-3.358l-1.85-.342-.391-1.097v-12.335c.782.137 1.382.206 1.773.206 4.38 0 6.83-5.756 6.83-15.213 0-9.868-2.294-13.842-7.117-13.842h-7.04v3.357l1.721.343.391.96v36.523l-.469 1.097-1.538.342zm5.449-21.037v-20.969h1.355c2.373 0 3.65 3.632 3.65 10.142 0 7.264-1.355 10.964-4.067 10.964-.286 0-.6-.069-.938-.137zM282.01 328.65h7.69v-3.358l-1.85-.342-.391-1.097v-12.335c.782.137 1.381.206 1.773.206 4.38 0 6.83-5.756 6.83-15.213 0-9.868-2.294-13.842-7.117-13.842h-7.04v3.357l1.721.343.391.96v36.523l-.469 1.097-1.538.342zm5.449-21.037v-20.969h1.355c2.373 0 3.65 3.632 3.65 10.142 0 7.264-1.355 10.964-4.067 10.964-.286 0-.6-.069-.938-.137zM297.32 328.65h14v-12.266h-1.773l-.443 7.264-.339 1.096h-6.048v-17.817h3.389l.365.96.26 4.933h1.539v-15.898h-1.538l-.261 4.934-.365.96h-3.39v-16.31h5.189l.339.891.39 6.03h1.826V282.67h-13.14v3.358l1.59.343.417.96v36.523l-.417 1.097-1.59.342zM312.52 282.67v12.129h1.799l.417-7.332.417-.891h3.129v37.278l-.444 1.096-1.694.343v3.358h7.795v-3.358l-1.695-.343-.443-1.096v-37.278h3.129l.39.89.444 7.333h1.799V282.67zM329.36 327.15c1.616 1.508 3.363 2.261 5.032 2.261 4.275 0 6.908-5.893 6.908-14.048 0-4.043-.834-7.743-2.346-10.279-1.538-2.604-2.92-3.631-3.728-4.933-1.382-2.193-2.112-4.249-2.112-7.401 0-3.769 1.173-6.51 3.076-6.51.835 0 1.434.343 1.904.96l.365.959.443 7.126h1.877v-11.1c-1.643-1.508-3.285-2.33-4.901-2.33-3.729 0-6.153 5.893-6.153 13.5 0 3.357.625 6.715 1.825 9.387 1.147 2.536 2.372 3.7 3.415 5.071 1.85 2.467 2.79 4.934 2.79 8.635 0 3.768-1.252 6.51-3.364 6.51-.808 0-1.564-.343-2.294-.96l-.339-1.028-.417-8.223h-1.981z"
            style={{
              whiteSpace: "pre",
            }}
            transform="matrix(1.3107 0 0 1.3177 30.49 609.93)"
          />
        </g>
        <path
          d="M134.05 173.16c-3.366 2.412-6.284 4.921-8.864 8.395 2.468 3.28 5.498 5.79 9.088 8.202 3.367-2.123 6.172-4.825 8.416-7.912-2.356-3.281-4.825-5.887-8.64-8.685zM135.73 197.35c-3.254 2.797-6.732 6.612-9.313 11.19 4.6 10.045 2.805 20.472-1.459 34.46.449.509 2.02 1.144 2.805 1.272 9.313-13.48 19.861-33.951 7.967-46.921z"
          style={{
            whiteSpace: "pre",
          }}
          transform="matrix(.78714 0 0 .85197 262.93 834.888)"
        />
      </g>
      <path
        fill="#d4aa00"
        d="M436.34 972.25h50.652c3.845 0 6.94 2.996 6.94 6.718v68.264c0 3.721-3.095 6.717-6.94 6.717h-50.555c12.052-.01 22.856-.841 30.372-2.177h15.976c3.845 0 6.94-2.996 6.94-6.718v-63.91c0-3.721-3.095-6.717-6.94-6.717h-15.977c-7.536-1.34-18.378-2.178-30.468-2.178z"
      />
    </g>
  </svg>

// inkscape export
<?xml version="1.0" encoding="UTF-8"?>
<!-- Created with Inkscape (http://www.inkscape.org/) -->
<svg width="210mm" height="297mm" version="1.1" viewBox="0 0 210 297" xmlns="http://www.w3.org/2000/svg">
 <g transform="translate(-319.18 -877.39)">
  <rect transform="rotate(90)" x="996.12" y="-511.22" width="28.409" height="11.927" rx="5.4513" ry="5.4513" fill="#a00" stroke-width=".056599"/>
  <g transform="matrix(1.3107 0 0 1.3177 30.49 609.93)" fill="#a00">
   <g stroke-width="1.5975">
    <path d="m237.05 327.15c1.6164 1.5076 3.3631 2.2614 5.0316 2.2614 4.2756 0 6.9087-5.8932 6.9087-14.048 0-4.043-0.83427-7.7434-2.3464-10.279-1.5382-2.604-2.9199-3.6318-3.7281-4.9338-1.3817-2.1928-2.1117-4.2486-2.1117-7.4007 0-3.7689 1.1732-6.5099 3.0763-6.5099 0.83426 0 1.4339 0.34263 1.9032 0.95936l0.36498 0.95934 0.44321 7.1266h1.8771v-11.101c-1.6424-1.5076-3.2849-2.3298-4.9013-2.3298-3.7281 0-6.1527 5.8932-6.1527 13.5 0 3.3577 0.6257 6.7155 1.8249 9.388 1.1471 2.5354 2.3724 3.7004 3.4153 5.0709 1.851 2.4669 2.7895 4.9338 2.7895 8.6342 0 3.7689-1.2514 6.5099-3.3631 6.5099-0.8082 0-1.5642-0.34263-2.2942-0.95936l-0.33891-1.0279-0.41713-8.223h-1.9814z" style="white-space:pre"/>
    <path d="m266.71 328.65h7.6908v-3.3578l-1.851-0.34263-0.39106-1.0964v-12.335c0.78211 0.1371 1.3818 0.20558 1.7728 0.20558 4.3799 0 6.8305-5.7561 6.8305-15.213 0-9.8676-2.2942-13.842-7.1173-13.842h-7.0391v3.3577l1.7207 0.34264 0.39104 0.95934v36.524l-0.46926 1.0964-1.5382 0.34263zm5.4488-21.037v-20.969h1.3557c2.3724 0 3.6499 3.6318 3.6499 10.142 0 7.2637-1.3557 10.964-4.067 10.964-0.28677 0-0.59962-0.0685-0.93853-0.13711z" style="white-space:pre"/>
    <path d="m282.01 328.65h7.6908v-3.3578l-1.851-0.34263-0.39105-1.0964v-12.335c0.78211 0.1371 1.3817 0.20558 1.7728 0.20558 4.3799 0 6.8305-5.7561 6.8305-15.213 0-9.8676-2.2942-13.842-7.1173-13.842h-7.0391v3.3577l1.7207 0.34264 0.39105 0.95934v36.524l-0.46927 1.0964-1.5382 0.34263zm5.4488-21.037v-20.969h1.3557c2.3724 0 3.6499 3.6318 3.6499 10.142 0 7.2637-1.3557 10.964-4.067 10.964-0.28678 0-0.59962-0.0685-0.93853-0.13711z" style="white-space:pre"/>
    <path d="m297.32 328.65h14v-12.266h-1.7728l-0.4432 7.2637-0.33892 1.0964h-6.0484v-17.817h3.3892l0.365 0.95936 0.26069 4.9338h1.5382v-15.898h-1.5382l-0.26069 4.9338-0.365 0.95936h-3.3892v-16.309h5.188l0.33891 0.89083 0.39106 6.0302h1.825v-10.758h-13.14v3.3577l1.5903 0.34264 0.41713 0.95934v36.524l-0.41713 1.0964-1.5903 0.34263z" style="white-space:pre"/>
    <path d="m312.52 282.67v12.129h1.7989l0.41713-7.3322 0.41713-0.89082h3.1285v37.278l-0.44319 1.0964-1.6946 0.34263v3.3578h7.7951v-3.3578l-1.6946-0.34263-0.4432-1.0964v-37.278h3.1285l0.39107 0.89082 0.44319 7.3322h1.7989v-12.129z" style="white-space:pre"/>
    <path d="m329.36 327.15c1.6164 1.5076 3.3631 2.2614 5.0316 2.2614 4.2756 0 6.9087-5.8932 6.9087-14.048 0-4.043-0.83426-7.7434-2.3464-10.279-1.5382-2.604-2.9199-3.6318-3.7281-4.9338-1.3817-2.1928-2.1117-4.2486-2.1117-7.4007 0-3.7689 1.1732-6.5099 3.0763-6.5099 0.83426 0 1.4339 0.34263 1.9031 0.95936l0.365 0.95934 0.4432 7.1266h1.8771v-11.101c-1.6424-1.5076-3.2849-2.3298-4.9013-2.3298-3.7281 0-6.1527 5.8932-6.1527 13.5 0 3.3577 0.62569 6.7155 1.8249 9.388 1.1471 2.5354 2.3724 3.7004 3.4152 5.0709 1.851 2.4669 2.7896 4.9338 2.7896 8.6342 0 3.7689-1.2514 6.5099-3.3631 6.5099-0.80817 0-1.5642-0.34263-2.2942-0.95936l-0.33892-1.0279-0.41713-8.223h-1.9814z" style="white-space:pre"/>
   </g>
   <g transform="matrix(.60055 0 0 .64656 177.34 170.72)">
    <path d="m134.05 173.16c-3.3663 2.4124-6.2837 4.9212-8.8645 8.395 2.4686 3.2808 5.4982 5.7896 9.0889 8.202 3.3663-2.1229 6.1715-4.8247 8.4157-7.9125-2.3564-3.2808-4.825-5.8861-8.6401-8.6844z" stroke-width="3.9328" style="white-space:pre"/>
    <path d="m135.73 197.35c-3.254 2.7975-6.7325 6.6122-9.3133 11.19 4.6006 10.045 2.8052 20.472-1.4587 34.46 0.44884 0.50864 2.0198 1.1444 2.8052 1.2716 9.3133-13.479 19.861-33.951 7.9668-46.921z" stroke-width="4.5146" style="white-space:pre"/>
   </g>
  </g>
  <path d="m436.34 972.25h50.652c3.8452 0 6.9409 2.9961 6.9409 6.7177v68.264c0 3.7216-3.0956 6.7177-6.9409 6.7177h-50.555c12.052-0.01 22.856-0.8414 30.372-2.1773h15.976c3.8452 0 6.9408-2.9961 6.9408-6.7178v-63.91c0-3.7216-3.0956-6.7177-6.9408-6.7177h-15.977c-7.536-1.3395-18.378-2.1774-30.468-2.1774z" fill="#d4aa00" stroke-width=".078555"/>
 </g>
</svg>
