<?xml version="1.0" encoding="UTF-8"?>
<!-- Created with Inkscape (http://www.inkscape.org/) -->
<svg width="210mm" height="297mm" version="1.1" viewBox="0 0 210 297" xmlns="http://www.w3.org/2000/svg">
 <g transform="translate(-89.268 -136.82)">
  <path d="m176.77 273.1-1.7165 6.1548c-0.90299 3.2382 1.2009 6.6541 4.6992 7.6298 3.4984 0.9757 7.0666-0.85853 7.9698-4.0969l2.7016-9.6878z" fill="#a00" stroke-width=".59433"/>
  <g>
   <path d="m180.82 287.88a8.8512 11.327 15.582 0 1-1.225-0.21976 8.8512 11.327 15.582 0 1-1.1623-0.44598l-2.333 8.366 2.3873 0.66575z" stroke-width=".69882"/>
   <path d="m176.1 267.24-1.3085 4.6921-2.0597 7.3857c-1.094 3.9307 1.2481 7.614 5.2986 9.3366-0.16944-0.68333 2.5978-0.0892 2.3873 0.66575 4.3575 0.62225 8.2677-1.3175 9.366-5.2471l1.489-5.3396 0.57061-2.0461 1.3085-4.6921-1.7624-0.49148-1.8791 6.7382-1.2873 4.616c-0.96433 3.4575-4.7741 5.4159-8.5094 4.3741-3.7351-1.0417-5.9815-4.6889-5.0174-8.1463l1.2873-4.616 0.57059-2.0461 1.3085-4.6921z" stroke-width=".59433"/>
   <path d="m180.92 298.25-3.1398-3.8955-4.7028 1.7084z" stroke-width=".33032"/>
  </g>
  <path d="m188.45 275.45-2.0148 7.2247-0.90622-0.25272 2.0148-7.2247z" fill="#fff" stroke-width="0"/>
  <g>
   <path d="m207.72 293.03a11.327 8.8512 74.418 0 0 1.225-0.21976 11.327 8.8512 74.418 0 0 1.1623-0.44599l2.333 8.366-2.3873 0.66575z" stroke-width=".69882"/>
   <path d="m212.44 272.4-1.7632 0.49144 0.47646 1.7084h1.9001zm-0.86816 3.6995 0.41393 1.4841 0.57051 2.0459 1.2872 4.6157c0.96407 3.4575-1.2826 7.1051-5.0178 8.1468-3.7353 1.0418-7.5447-0.9169-8.509-4.3744l-1.2873-4.6157-0.5705-2.0464-1.3084-4.6917-1.7627 0.49145 1.3084 4.6917 0.57051 2.0464 1.4893 5.3392c1.0983 3.9296 5.0083 5.8695 9.3658 5.2472-0.21051-0.75495 2.5569-1.3489 2.3874-0.66559 4.0505-1.7227 6.3923-5.4062 5.2984-9.3369l-1.4888-5.3392-0.57051-2.0464-0.27647-0.99218z" stroke-width=".59433"/>
   <path d="m207.62 303.4 3.1398-3.8955 4.7028 1.7084z" stroke-width=".33032"/>
  </g>
  <path d="m200.09 280.61 2.0148 7.2248 0.90622-0.25272-2.0148-7.2248z" fill="#fff" stroke-width="0"/>
  <path d="m211.72 278.22 1.7165 6.1548c0.90299 3.2382-1.2009 6.6541-4.6992 7.6298-3.4984 0.97571-7.0666-0.85852-7.9698-4.0968l-2.7016-9.6878z" fill="#a00" stroke-width=".59433"/>
 </g>
</svg>
