// react svg

<svg
    xmlns="http://www.w3.org/2000/svg"
    width="210mm"
    height="297mm"
    viewBox="0 0 210 297"
  >
    <path
      fill="#d4ff2a"
      d="M95.713 130.877v14.203c0 4.748 4.158 8.596 9.287 8.596 5.129 0 9.287-3.848 9.287-8.596v-14.203z"
    />
    <path d="M106.75 154.607a12.5 15.997 0 0 1-1.75.166 12.5 15.997 0 0 1-1.75-.166v12.265h3.5z" />
    <path d="M92.5 128.324v17.707c.003 5.762 4.586 9.884 10.75 10.691-.49-.865 3.5-1.107 3.5 0 6.164-.807 10.747-4.929 10.75-10.691v-17.707h-2.584v16.647c0 5.07-4.44 9.178-9.916 9.178s-9.915-4.109-9.916-9.178v-16.647zM110.75 168.677l-5.749-4.108-5.75 4.108z" />
    <path fill="#fff" d="M105.66 134.807v10.592h-1.329v-10.592z" />
  </svg>

// inkscape export

<?xml version="1.0" encoding="UTF-8"?>
<!-- Created with Inkscape (http://www.inkscape.org/) -->
<svg width="210mm" height="297mm" version="1.1" viewBox="0 0 210 297" xmlns="http://www.w3.org/2000/svg">
 <g transform="translate(0 30.627)">
  <path d="m95.713 100.25v14.203c7e-5 4.7476 4.1578 8.5962 9.2868 8.5964 5.1291 1.3e-4 9.2872-3.8486 9.2873-8.5964v-14.203z" fill="#d4ff2a" stroke-width=".83933"/>
  <g>
   <path d="m106.75 123.98a12.5 15.997 0 0 1-1.7498 0.16576 12.5 15.997 0 0 1-1.7503-0.16576v12.265h3.5z" stroke-width=".98689"/>
   <path d="m92.5 97.697v17.707c3e-3 5.762 4.5862 9.884 10.75 10.691-0.48974-0.86528 3.5-1.1067 3.5 0 6.1637-0.80659 10.747-4.9287 10.75-10.691v-17.707h-2.5838v16.647c-1.8e-4 5.0692-4.4398 9.1784-9.9162 9.1782-5.4762-8e-5 -9.9155-4.1092-9.9157-9.1782v-16.647z" stroke-width=".83933"/>
   <path d="m110.75 138.05-5.749-4.1081-5.7492 4.1081z" stroke-width=".46649"/>
  </g>
  <rect transform="rotate(90)" x="104.18" y="-105.66" width="10.592" height="1.3286" fill="#fff" stroke-width="0"/>
 </g>
</svg>
