<?xml version="1.0" encoding="UTF-8"?>
<!-- Created with Inkscape (http://www.inkscape.org/) -->
<svg width="210mm" height="297mm" version="1.1" viewBox="0 0 210 297" xmlns="http://www.w3.org/2000/svg">
 <path d="m149.94 114.43c0-4.8156-3.8769-8.6925-8.6925-8.6925h-95.211c-4.8156 0-8.6925 3.8769-8.6925 8.6925v68.137c0 4.8156 3.8769 8.6925 8.6925 8.6925h95.211c4.8156 0 8.6925-3.8768 8.6925-8.6925zm-7.5577 4.5734v58.99c0 4.1692-3.3565 7.5256-7.5256 7.5256h-82.43c-4.1691 0-7.5256-3.3565-7.5256-7.5256v-58.99c0-4.1692 3.3565-7.5256 7.5256-7.5256h82.43c4.1692 0 7.5256 3.3565 7.5256 7.5256zm-48.027 31.787c-3e-5 -4e-3 -9e-4 -8e-3 -1e-3 -0.0119-1.3e-4 0.0154-1.6e-4 0.0305-1e-3 0.046 0-0.0116 2e-3 -0.0222 2e-3 -0.0341z" fill="#d4aa00" stroke-width=".12012"/>
 <rect transform="rotate(90)" x="134.3" y="-172.65" width="28.409" height="11.927" rx="5.4513" ry="2.6671" fill="#a00" stroke-width=".056599"/>
 <g transform="translate(32.419 -592.81)" stroke-width=".37795">
  <g transform="matrix(11.677,0,0,11.677,3730.4,-26409)" fill="#a00" style="shape-inside:url(#rect13050);white-space:pre" aria-label="s">
   <path d="m-316.2 2326.1c0 0.828-0.036 1.188-0.132 1.668 0.636 0.204 1.092 0.288 1.644 0.288 1.572 0 2.688-0.828 2.688-2.016 0-0.384-0.108-0.648-0.336-0.888-0.312-0.3-0.696-0.444-1.764-0.648-0.984-0.192-1.308-0.432-1.308-0.984 0-0.6 0.408-0.936 1.152-0.936 0.816 0 1.416 0.42 1.416 0.984v0.276h0.336c0.012-0.696 0.024-0.984 0.06-1.356-0.648-0.216-1.056-0.3-1.56-0.3-1.392 0-2.244 0.66-2.244 1.74 0 0.588 0.264 0.972 0.816 1.236 0.324 0.144 0.96 0.336 1.776 0.516 0.54 0.12 0.768 0.36 0.768 0.828 0 0.648-0.6 1.104-1.452 1.104-0.876 0-1.5-0.42-1.5-1.02v-0.492z" fill="#a00"/>
  </g>
  <text transform="matrix(0,-5.9354,5.9354,0,-13002,-2346.6)" fill="#aa0000" font-family="P052" style="shape-inside:url(#rect46188);white-space:pre" xml:space="preserve"/>
  <text transform="matrix(0,5.9354,-5.9354,0,13126,3833.1)" fill="#aa0000" font-family="P052" style="shape-inside:url(#rect46190);white-space:pre" xml:space="preserve"/>
 </g>
</svg>
