<svg id="visual" viewBox="0 0 650 900" width="650" height="900" xmlns="http://www.w3.org/2000/svg" xmlns:xlink="http://www.w3.org/1999/xlink" version="1.1"><rect x="0" y="0" width="650" height="900" fill="#09090b"></rect><path d="M0 711L27.2 710.2C54.3 709.3 108.7 707.7 162.8 712.5C217 717.3 271 728.7 325.2 730.2C379.3 731.7 433.7 723.3 487.8 736.7C542 750 596 785 623 802.5L650 820L650 901L623 901C596 901 542 901 487.8 901C433.7 901 379.3 901 325.2 901C271 901 217 901 162.8 901C108.7 901 54.3 901 27.2 901L0 901Z" fill="#0066FF" stroke-linecap="round" stroke-linejoin="miter"></path></svg>